{
    "asset" : {
        "generator" : "Khronos glTF Blender I/O v1.5.17",
        "version" : "2.0"
    },
    "scene" : 0,
    "scenes" : [
        {
            "name" : "food_can.qc",
            "nodes" : [
                0
            ]
        }
    ],
    "nodes" : [
        {
            "mesh" : 0,
            "name" : "food_can"
        }
    ],
    "materials" : [
        {
            "doubleSided" : true,
            "name" : "food_can",
            "pbrMetallicRoughness" : {
                "baseColorTexture" : {
                    "index" : 0
                },
                "metallicFactor" : 0,
                "roughnessFactor" : 0.5
            }
        }
    ],
    "meshes" : [
        {
            "name" : "food_can",
            "primitives" : [
                {
                    "attributes" : {
                        "POSITION" : 0,
                        "NORMAL" : 1,
                        "TEXCOORD_0" : 2
                    },
                    "indices" : 3,
                    "material" : 0
                }
            ]
        }
    ],
    "textures" : [
        {
            "sampler" : 0,
            "source" : 0
        }
    ],
    "images" : [
        {
            "bufferView" : 4,
            "mimeType" : "image/png",
            "name" : "x2.png (1)"
        }
    ],
    "accessors" : [
        {
            "bufferView" : 0,
            "componentType" : 5126,
            "count" : 304,
            "max" : [
                3.3130359649658203,
                4.611462116241455,
                3.3130359649658203
            ],
            "min" : [
                -3.3130359649658203,
                -4.611462116241455,
                -3.3130359649658203
            ],
            "type" : "VEC3"
        },
        {
            "bufferView" : 1,
            "componentType" : 5126,
            "count" : 304,
            "type" : "VEC3"
        },
        {
            "bufferView" : 2,
            "componentType" : 5126,
            "count" : 304,
            "type" : "VEC2"
        },
        {
            "bufferView" : 3,
            "componentType" : 5123,
            "count" : 948,
            "type" : "SCALAR"
        }
    ],
    "bufferViews" : [
        {
            "buffer" : 0,
            "byteLength" : 3648,
            "byteOffset" : 0
        },
        {
            "buffer" : 0,
            "byteLength" : 3648,
            "byteOffset" : 3648
        },
        {
            "buffer" : 0,
            "byteLength" : 2432,
            "byteOffset" : 7296
        },
        {
            "buffer" : 0,
            "byteLength" : 1896,
            "byteOffset" : 9728
        },
        {
            "buffer" : 0,
            "byteLength" : 480026,
            "byteOffset" : 11624
        }
    ],
    "samplers" : [
        {
            "magFilter" : 9729,
            "minFilter" : 9987
        }
    ],
    "buffers" : [
        {
            "byteLength" : 491652,
            "uri" : "data:application/octet-stream;base64,"
        }
    ]
}
